<svg viewBox="0 0 64 64" xmlns="http://www.w3.org/2000/svg">
  <!-- Background -->
  <rect width="64" height="64" rx="12" fill="#1e40af"/>
  
  <!-- Balance beam -->
  <rect x="16" y="30" width="32" height="4" rx="2" fill="#ffffff"/>
  
  <!-- Center pivot -->
  <circle cx="32" cy="32" r="5" fill="#f97316"/>
  
  <!-- Left node -->
  <rect x="20" y="18" width="10" height="10" rx="2" fill="#60a5fa"/>
  <line x1="25" y1="28" x2="25" y2="30" stroke="#ffffff" stroke-width="2"/>
  
  <!-- Right node -->
  <rect x="34" y="20" width="10" height="10" rx="2" fill="#34d399"/>
  <line x1="39" y1="30" x2="39" y2="30" stroke="#ffffff" stroke-width="2"/>
  
  <!-- Subtle server lines in nodes -->
  <line x1="21" y1="21" x2="29" y2="21" stroke="#1e40af" stroke-width="1" opacity="0.5"/>
  <line x1="21" y1="24" x2="29" y2="24" stroke="#1e40af" stroke-width="1" opacity="0.5"/>
  
  <line x1="35" y1="23" x2="43" y2="23" stroke="#047857" stroke-width="1" opacity="0.5"/>
  <line x1="35" y1="26" x2="43" y2="26" stroke="#047857" stroke-width="1" opacity="0.5"/>
  
  <!-- Balance indicator arrows -->
  <path d="M 26 40 L 30 40" stroke="#f97316" stroke-width="1.5" opacity="0.8"/>
  <polygon points="30,40 28,39 28,41" fill="#f97316" opacity="0.8"/>
  
  <path d="M 38 44 L 34 44" stroke="#f97316" stroke-width="1.5" opacity="0.8"/>
  <polygon points="34,44 36,43 36,45" fill="#f97316" opacity="0.8"/>
</svg>
