<svg viewBox="0 0 64 64" xmlns="http://www.w3.org/2000/svg">
  <defs>
    <linearGradient id="fav-blue" x1="0%" y1="0%" x2="100%" y2="100%">
      <stop offset="0%" style="stop-color:#60a5fa;stop-opacity:1" />
      <stop offset="100%" style="stop-color:#2563eb;stop-opacity:1" />
    </linearGradient>
    <linearGradient id="fav-green" x1="0%" y1="0%" x2="100%" y2="100%">
      <stop offset="0%" style="stop-color:#34d399;stop-opacity:1" />
      <stop offset="100%" style="stop-color:#059669;stop-opacity:1" />
    </linearGradient>
  </defs>
  
  <!-- Background -->
  <rect width="64" height="64" rx="14" fill="#0f172a"/>
  
  <!-- Left block (blue) - larger and bolder -->
  <rect x="10" y="20" width="18" height="22" rx="3" fill="url(#fav-blue)"/>
  <rect x="12" y="24" width="14" height="3" rx="1" fill="#93c5fd"/>
  <rect x="12" y="30" width="14" height="3" rx="1" fill="#93c5fd"/>
  <rect x="12" y="36" width="10" height="3" rx="1" fill="#93c5fd"/>
  
  <!-- Right block (green) - larger and bolder -->
  <rect x="36" y="20" width="18" height="22" rx="3" fill="url(#fav-green)"/>
  <rect x="38" y="24" width="14" height="3" rx="1" fill="#6ee7b7"/>
  <rect x="38" y="30" width="14" height="3" rx="1" fill="#6ee7b7"/>
  <rect x="38" y="36" width="10" height="3" rx="1" fill="#6ee7b7"/>
  
  <!-- Bold balance beam -->
  <rect x="12" y="46" width="40" height="5" rx="2" fill="#3b82f6"/>
  
  <!-- Large, prominent pivot point -->
  <circle cx="32" cy="48" r="7" fill="#f97316"/>
  <circle cx="32" cy="48" r="3" fill="#fbbf24"/>
  
  <!-- Connection lines -->
  <rect x="18" y="42" width="2" height="4" fill="#3b82f6"/>
  <rect x="44" y="42" width="2" height="4" fill="#10b981"/>
</svg>