<svg viewBox="0 0 400 400" xmlns="http://www.w3.org/2000/svg">
  <defs>
    <linearGradient id="iso-blue-top" x1="0%" y1="0%" x2="0%" y2="100%">
      <stop offset="0%" style="stop-color:#60a5fa;stop-opacity:1" />
      <stop offset="100%" style="stop-color:#3b82f6;stop-opacity:1" />
    </linearGradient>
    <linearGradient id="iso-blue-side" x1="0%" y1="0%" x2="100%" y2="0%">
      <stop offset="0%" style="stop-color:#1e40af;stop-opacity:1" />
      <stop offset="100%" style="stop-color:#2563eb;stop-opacity:1" />
    </linearGradient>
    <linearGradient id="iso-green-top" x1="0%" y1="0%" x2="0%" y2="100%">
      <stop offset="0%" style="stop-color:#34d399;stop-opacity:1" />
      <stop offset="100%" style="stop-color:#10b981;stop-opacity:1" />
    </linearGradient>
    <linearGradient id="iso-green-side" x1="0%" y1="0%" x2="100%" y2="0%">
      <stop offset="0%" style="stop-color:#047857;stop-opacity:1" />
      <stop offset="100%" style="stop-color:#059669;stop-opacity:1" />
    </linearGradient>
    <radialGradient id="iso-pivot">
      <stop offset="0%" style="stop-color:#fbbf24;stop-opacity:1" />
      <stop offset="70%" style="stop-color:#f97316;stop-opacity:1" />
      <stop offset="100%" style="stop-color:#ea580c;stop-opacity:1" />
    </radialGradient>
  </defs>
  
  <!-- Dark background -->
  <rect width="400" height="400" fill="#0f172a"/>
  
  <!-- Subtle background circle -->
  <circle cx="200" cy="200" r="190" fill="#1e293b"/>
  <circle cx="200" cy="200" r="190" fill="none" stroke="#334155" stroke-width="2"/>
  
  <!-- Main balance beam - isometric perspective -->
  <g>
    <!-- Beam shadow -->
    <ellipse cx="200" cy="185" rx="108" ry="4" fill="#000000" opacity="0.4"/>
    <!-- Beam bottom -->
    <path d="M 92 178 L 308 178 L 308 182 L 92 182 Z" fill="#1e40af"/>
    <!-- Beam top -->
    <path d="M 92 173 L 308 173 L 308 178 L 92 178 Z" fill="#3b82f6"/>
    <!-- Beam front edge -->
    <path d="M 92 173 L 92 182 L 96 182 L 96 173 Z" fill="#2563eb"/>
  </g>
  
  <!-- Center pivot - isometric cube -->
  <g transform="translate(200, 173)">
    <!-- Shadow -->
    <ellipse cx="0" cy="16" rx="14" ry="4" fill="#000000" opacity="0.5"/>
    <!-- Bottom face -->
    <path d="M -10,8 L 0,12 L 10,8 L 0,4 Z" fill="#ea580c"/>
    <!-- Left face -->
    <path d="M -10,-6 L -10,8 L 0,12 L 0,-2 Z" fill="url(#iso-pivot)"/>
    <!-- Right face -->
    <path d="M 10,-6 L 10,8 L 0,12 L 0,-2 Z" fill="#f97316"/>
    <!-- Top face -->
    <path d="M -10,-6 L 0,-10 L 10,-6 L 0,-2 Z" fill="#fbbf24"/>
    <!-- Highlight -->
    <circle cx="-3" cy="-7" r="2" fill="#fef3c7" opacity="0.7"/>
  </g>
  
  <!-- Left server node - isometric -->
  <g transform="translate(115, 110)">
    <!-- Shadow -->
    <ellipse cx="0" cy="68" rx="32" ry="8" fill="#000000" opacity="0.4"/>
    <!-- Server bottom -->
    <path d="M -26,50 L 0,62 L 26,50 L 0,38 Z" fill="#1e40af"/>
    <!-- Server left face -->
    <path d="M -26,0 L -26,50 L 0,62 L 0,12 Z" fill="url(#iso-blue-side)"/>
    <!-- Server right face -->
    <path d="M 26,0 L 26,50 L 0,62 L 0,12 Z" fill="#2563eb"/>
    <!-- Server top -->
    <path d="M -26,0 L 0,-12 L 26,0 L 0,12 Z" fill="url(#iso-blue-top)"/>
    <!-- Panel details on left face -->
    <rect x="-24" y="8" width="22" height="3" fill="#93c5fd" opacity="0.7"/>
    <rect x="-24" y="15" width="22" height="3" fill="#93c5fd" opacity="0.5"/>
    <rect x="-24" y="22" width="16" height="3" fill="#93c5fd" opacity="0.7"/>
    <rect x="-24" y="29" width="20" height="3" fill="#93c5fd" opacity="0.5"/>
    <!-- Status lights -->
    <circle cx="-20" cy="42" r="2" fill="#10b981"/>
    <circle cx="-14" cy="42" r="2" fill="#10b981"/>
    <!-- Connection rod -->
    <rect x="-2" y="62" width="4" height="6" fill="#1e40af"/>
  </g>
  
  <!-- Right server node - isometric -->
  <g transform="translate(285, 125)">
    <!-- Shadow -->
    <ellipse cx="0" cy="63" rx="32" ry="8" fill="#000000" opacity="0.4"/>
    <!-- Server bottom -->
    <path d="M -26,45 L 0,57 L 26,45 L 0,33 Z" fill="#047857"/>
    <!-- Server left face -->
    <path d="M -26,0 L -26,45 L 0,57 L 0,12 Z" fill="url(#iso-green-side)"/>
    <!-- Server right face -->
    <path d="M 26,0 L 26,45 L 0,57 L 0,12 Z" fill="#059669"/>
    <!-- Server top -->
    <path d="M -26,0 L 0,-12 L 26,0 L 0,12 Z" fill="url(#iso-green-top)"/>
    <!-- Panel details on left face -->
    <rect x="-24" y="8" width="22" height="3" fill="#6ee7b7" opacity="0.7"/>
    <rect x="-24" y="15" width="22" height="3" fill="#6ee7b7" opacity="0.5"/>
    <rect x="-24" y="22" width="18" height="3" fill="#6ee7b7" opacity="0.7"/>
    <rect x="-24" y="29" width="22" height="3" fill="#6ee7b7" opacity="0.5"/>
    <!-- Status lights -->
    <circle cx="-20" cy="37" r="2" fill="#10b981"/>
    <circle cx="-14" cy="37" r="2" fill="#10b981"/>
    <!-- Connection rod -->
    <rect x="-2" y="57" width="4" height="6" fill="#047857"/>
  </g>
  
  <!-- Data flow arrows with depth -->
  <g opacity="0.85">
    <!-- Flow line 1 -->
    <path d="M 135 195 Q 200 187 265 195" fill="none" stroke="#f97316" stroke-width="3" stroke-dasharray="6,4" stroke-linecap="round">
      <animate attributeName="stroke-dashoffset" from="0" to="10" dur="1.5s" repeatCount="indefinite"/>
    </path>
    <path d="M 258 191 L 267 195 L 258 199 Z" fill="#f97316"/>
    
    <!-- Flow line 2 -->
    <path d="M 265 218 Q 200 226 135 218" fill="none" stroke="#f97316" stroke-width="3" stroke-dasharray="6,4" stroke-linecap="round">
      <animate attributeName="stroke-dashoffset" from="0" to="10" dur="1.5s" repeatCount="indefinite"/>
    </path>
    <path d="M 142 214 L 133 218 L 142 222 Z" fill="#f97316"/>
  </g>
  
  <!-- Typography with depth - adjusted for dark background -->
  <text x="202" y="282" font-family="'Poppins', 'Inter', sans-serif" font-size="44" font-weight="800" fill="#1e293b" text-anchor="middle">ProxBalance</text>
  <text x="200" y="280" font-family="'Poppins', 'Inter', sans-serif" font-size="44" font-weight="800" fill="#e0e7ff" text-anchor="middle">ProxBalance</text>
  <text x="200" y="305" font-family="'Poppins', 'Inter', sans-serif" font-size="12" font-weight="600" fill="#94a3b8" text-anchor="middle" letter-spacing="2">CLUSTER OPTIMIZATION</text>
</svg>